<svg xmlns="http://www.w3.org/2000/svg" viewBox="0 0 1500 1000" width="1500" height="1000" role="presentation">
<defs><filter id="grain" x="0" y="0" width="100%" height="100%">
<feTurbulence type="fractalNoise" baseFrequency="0.9" numOctaves="3" seed="7" result="n"/>
<feColorMatrix type="saturate" values="0" in="n" result="g"/>
<feComponentTransfer in="g"><feFuncA type="linear" slope="0.5"/></feComponentTransfer>
</filter><linearGradient id="sky" x1="0" y1="0" x2="0" y2="1">
<stop offset="0" stop-color="#efe6cd"/><stop offset="1" stop-color="#e4dcb8"/></linearGradient></defs>
<rect width="1500" height="1000" fill="url(#sky)"/><circle cx="504.03" cy="260.99" r="80" fill="#d8b25c" opacity="0.88"/><path d="M0 1000 L0 531.05 Q28.85 531.05 57.69 575.98 Q86.54 575.98 115.38 609.64 Q144.23 609.64 173.08 618.34 Q201.93 618.34 230.77 599.28 Q259.62 599.28 288.46 561.84 Q317.3 561.84 346.15 523.06 Q375 523.06 403.85 499.48 Q432.7 499.48 461.54 499.19 Q490.39 499.19 519.23 518.08 Q548.08 518.08 576.92 541.89 Q605.77 541.89 634.62 553.29 Q663.46 553.29 692.31 540.42 Q721.16 540.42 750 502.75 Q778.85 502.75 807.69 451.59 Q836.54 451.59 865.38 404.84 Q894.23 404.84 923.08 378.53 Q951.93 378.53 980.77 379.36 Q1009.62 379.36 1038.46 401.57 Q1067.31 401.57 1096.15 429.94 Q1125 429.94 1153.85 447.26 Q1182.7 447.26 1211.54 442.7 Q1240.39 442.7 1269.23 417.15 Q1298.08 417.15 1326.92 382.8 Q1355.77 382.8 1384.62 357.29 Q1413.47 357.29 1442.31 355.14 Q1471.16 355.14 1500 380.73 L1500 1000 Z" fill="#c2c08a"/><rect x="0" y="480" width="1500" height="45" fill="#f2ecd9" opacity="0.26"/><path d="M0 1000 L0 580.04 Q28.85 580.04 57.69 573.57 Q86.54 573.57 115.38 572.47 Q144.23 572.47 173.08 575.05 Q201.93 575.05 230.77 578.82 Q259.62 578.82 288.46 581.04 Q317.3 581.04 346.15 579.3 Q375 579.3 403.85 572.02 Q432.7 572.02 461.54 558.8 Q490.39 558.8 519.23 540.6 Q548.08 540.6 576.92 519.58 Q605.77 519.58 634.62 498.82 Q663.46 498.82 692.31 481.74 Q721.16 481.74 750 471.57 Q778.85 471.57 807.69 470.71 Q836.54 470.71 865.38 480.32 Q894.23 480.32 923.08 500.04 Q951.93 500.04 980.77 528.04 Q1009.62 528.04 1038.46 561.23 Q1067.31 561.23 1096.15 595.74 Q1125 595.74 1153.85 627.53 Q1182.7 627.53 1211.54 652.99 Q1240.39 652.99 1269.23 669.55 Q1298.08 669.55 1326.92 675.96 Q1355.77 675.96 1384.62 672.55 Q1413.47 672.55 1442.31 660.99 Q1471.16 660.99 1500 644.07 L1500 1000 Z" fill="#9aa06a"/><rect x="0" y="576" width="1500" height="45" fill="#f2ecd9" opacity="0.26"/><path d="M0 1000 L0 686.56 Q28.85 686.56 57.69 684.54 Q86.54 684.54 115.38 687.59 Q144.23 687.59 173.08 693.34 Q201.93 693.34 230.77 698.54 Q259.62 698.54 288.46 699.92 Q317.3 699.92 346.15 694.94 Q375 694.94 403.85 682.45 Q432.7 682.45 461.54 663.07 Q490.39 663.07 519.23 639.09 Q548.08 639.09 576.92 614.11 Q605.77 614.11 634.62 592.27 Q663.46 592.27 692.31 577.44 Q721.16 577.44 750 572.39 Q778.85 572.39 807.69 578.23 Q836.54 578.23 865.38 594.15 Q894.23 594.15 923.08 617.57 Q951.93 617.57 980.77 644.69 Q1009.62 644.69 1038.46 671.24 Q1067.31 671.24 1096.15 693.35 Q1125 693.35 1153.85 708.33 Q1182.7 708.33 1211.54 715.13 Q1240.39 715.13 1269.23 714.5 Q1298.08 714.5 1326.92 708.73 Q1355.77 708.73 1384.62 701.06 Q1413.47 701.06 1442.31 694.88 Q1471.16 694.88 1500 692.91 L1500 1000 Z" fill="#74804f"/><rect x="0" y="672" width="1500" height="45" fill="#f2ecd9" opacity="0.26"/><path d="M0 1000 L0 828.06 Q28.85 828.06 57.69 844.43 Q86.54 844.43 115.38 845.73 Q144.23 845.73 173.08 831.96 Q201.93 831.96 230.77 810.01 Q259.62 810.01 288.46 790.25 Q317.3 790.25 346.15 781.46 Q375 781.46 403.85 786.56 Q432.7 786.56 461.54 801.16 Q490.39 801.16 519.23 815.82 Q548.08 815.82 576.92 820.7 Q605.77 820.7 634.62 810.42 Q663.46 810.42 692.31 786.84 Q721.16 786.84 750 758.14 Q778.85 758.14 807.69 734.94 Q836.54 734.94 865.38 725.15 Q894.23 725.15 923.08 730.14 Q951.93 730.14 980.77 744.19 Q1009.62 744.19 1038.46 757.34 Q1067.31 757.34 1096.15 760.36 Q1125 760.36 1153.85 749.34 Q1182.7 749.34 1211.54 727.64 Q1240.39 727.64 1269.23 704.33 Q1298.08 704.33 1326.92 689.75 Q1355.77 689.75 1384.62 690.45 Q1413.47 690.45 1442.31 706.02 Q1471.16 706.02 1500 729.26 L1500 1000 Z" fill="#525f3a"/><rect x="0" y="768" width="1500" height="45" fill="#f2ecd9" opacity="0.26"/><path d="M0 1000 L0 811.33 Q28.85 811.33 57.69 817.12 Q86.54 817.12 115.38 826.18 Q144.23 826.18 173.08 836.7 Q201.93 836.7 230.77 846.78 Q259.62 846.78 288.46 854.82 Q317.3 854.82 346.15 859.8 Q375 859.8 403.85 861.45 Q432.7 861.45 461.54 860.28 Q490.39 860.28 519.23 857.47 Q548.08 857.47 576.92 854.59 Q605.77 854.59 634.62 853.26 Q663.46 853.26 692.31 854.83 Q721.16 854.83 750 860.06 Q778.85 860.06 807.69 868.94 Q836.54 868.94 865.38 880.67 Q894.23 880.67 923.08 893.75 Q951.93 893.75 980.77 906.29 Q1009.62 906.29 1038.46 916.29 Q1067.31 916.29 1096.15 922.05 Q1125 922.05 1153.85 922.47 Q1182.7 922.47 1211.54 917.27 Q1240.39 917.27 1269.23 907.03 Q1298.08 907.03 1326.92 893.12 Q1355.77 893.12 1384.62 877.43 Q1413.47 877.43 1442.31 862.08 Q1471.16 862.08 1500 848.98 L1500 1000 Z" fill="#36402a"/>
<rect width="1500" height="1000" filter="url(#grain)" opacity="0.16" style="mix-blend-mode:multiply"/>
</svg>